# xmcd CD database file
#
# Track frame offsets:
#	150
#	22534
#	53399
#	82815
#	103899
#	126984
#	153414
#
# Disc length: 2367 seconds
#
# Revision: 1
# Processed by: cddbd v1.5.2PL0 Copyright (c) Steve Scherf et al.
# Submitted via: CDex 1.51
#
DISCID=43093d07
DTITLE=Jan Kisjes - The Nymphs [CD2)
DYEAR=2003
DGENRE=New Age
TTITLE0=01-Sa Na Du
TTITLE1=02-Waka Zia
TTITLE2=03-Donde Djembeh
TTITLE3=04-Umna Sa
TTITLE4=05-NaNo Mi Ne
TTITLE5=06-Adjah Bihem
TTITLE6=07-Nouri Samah
EXTD=YEAR: 2003
EXTT0=
EXTT1=
EXTT2=
EXTT3=
EXTT4=
EXTT5=
EXTT6=
PLAYORDER=
